<?xml version="1.0" encoding="UTF-8" standalone="no"?>
<!DOCTYPE svg PUBLIC "-//W3C//DTD SVG 1.1//EN"
 "http://www.w3.org/Graphics/SVG/1.1/DTD/svg11.dtd">
<!-- Generated by graphviz version 15.0.0 (20260523.1842)
 -->
<!-- Title: pipeline_compact Pages: 1 -->
<svg width="714pt" height="67pt"
 viewBox="0.00 0.00 714.00 67.00" xmlns="http://www.w3.org/2000/svg" xmlns:xlink="http://www.w3.org/1999/xlink">
<g id="graph0" class="graph" transform="scale(1 1) rotate(0) translate(4 62.74)">
<title>pipeline_compact</title>
<polygon fill="white" stroke="none" points="-4,4 -4,-62.74 710.3,-62.74 710.3,4 -4,4"/>
<!-- tree -->
<g id="node1" class="node">
<title>tree</title>
<path fill="#eef0f2" stroke="#555555" stroke-width="1.3" d="M73.8,-53.4C73.8,-56.35 57.26,-58.74 36.9,-58.74 16.54,-58.74 0,-56.35 0,-53.4 0,-53.4 0,-5.34 0,-5.34 0,-2.39 16.54,0 36.9,0 57.26,0 73.8,-2.39 73.8,-5.34 73.8,-5.34 73.8,-53.4 73.8,-53.4"/>
<path fill="none" stroke="#555555" stroke-width="1.3" d="M73.8,-53.4C73.8,-50.45 57.26,-48.06 36.9,-48.06 16.54,-48.06 0,-50.45 0,-53.4"/>
<text xml:space="preserve" text-anchor="middle" x="36.9" y="-30.92" font-family="Helvetica,sans-Serif" font-size="11.00" fill="#222222">Semantic</text>
<text xml:space="preserve" text-anchor="middle" x="36.9" y="-18.92" font-family="Helvetica,sans-Serif" font-size="11.00" fill="#222222">tree</text>
</g>
<!-- s -->
<g id="node2" class="node">
<title>s</title>
<path fill="#e7eef6" stroke="#3e6d9c" stroke-width="1.3" d="M169.1,-50.73C169.1,-50.73 117.8,-50.73 117.8,-50.73 111.8,-50.73 105.8,-44.73 105.8,-38.73 105.8,-38.73 105.8,-20.01 105.8,-20.01 105.8,-14.01 111.8,-8.01 117.8,-8.01 117.8,-8.01 169.1,-8.01 169.1,-8.01 175.1,-8.01 181.1,-14.01 181.1,-20.01 181.1,-20.01 181.1,-38.73 181.1,-38.73 181.1,-44.73 175.1,-50.73 169.1,-50.73"/>
<text xml:space="preserve" text-anchor="middle" x="143.45" y="-30.92" font-family="Helvetica,sans-Serif" font-size="11.00" fill="#222222">1. Scrape</text>
<text xml:space="preserve" text-anchor="middle" x="143.45" y="-18.92" font-family="Helvetica,sans-Serif" font-size="11.00" fill="#222222">policies</text>
</g>
<!-- tree&#45;&gt;s -->
<g id="edge1" class="edge">
<title>tree&#45;&gt;s</title>
<path fill="none" stroke="#8a8f94" stroke-width="1.3" d="M74.17,-29.37C81.07,-29.37 88.37,-29.37 95.54,-29.37"/>
<polygon fill="#8a8f94" stroke="#8a8f94" stroke-width="1.3" points="95.21,-32.17 103.21,-29.37 95.21,-26.57 95.21,-32.17"/>
</g>
<!-- c -->
<g id="node3" class="node">
<title>c</title>
<path fill="#e6f1ea" stroke="#4f8a6b" stroke-width="1.3" d="M296.65,-50.73C296.65,-50.73 225.1,-50.73 225.1,-50.73 219.1,-50.73 213.1,-44.73 213.1,-38.73 213.1,-38.73 213.1,-20.01 213.1,-20.01 213.1,-14.01 219.1,-8.01 225.1,-8.01 225.1,-8.01 296.65,-8.01 296.65,-8.01 302.65,-8.01 308.65,-14.01 308.65,-20.01 308.65,-20.01 308.65,-38.73 308.65,-38.73 308.65,-44.73 302.65,-50.73 296.65,-50.73"/>
<text xml:space="preserve" text-anchor="middle" x="260.88" y="-30.92" font-family="Helvetica,sans-Serif" font-size="11.00" fill="#222222">2. Classify</text>
<text xml:space="preserve" text-anchor="middle" x="260.88" y="-18.92" font-family="Helvetica,sans-Serif" font-size="11.00" fill="#222222">into taxonomy</text>
</g>
<!-- s&#45;&gt;c -->
<g id="edge2" class="edge">
<title>s&#45;&gt;c</title>
<path fill="none" stroke="#8a8f94" stroke-width="1.3" d="M181.61,-29.37C188.4,-29.37 195.64,-29.37 202.86,-29.37"/>
<polygon fill="#8a8f94" stroke="#8a8f94" stroke-width="1.3" points="202.68,-32.17 210.68,-29.37 202.68,-26.57 202.68,-32.17"/>
</g>
<!-- g -->
<g id="node4" class="node">
<title>g</title>
<path fill="#f5ecd9" stroke="#c08a3e" stroke-width="1.3" d="M456.45,-50.73C456.45,-50.73 352.65,-50.73 352.65,-50.73 346.65,-50.73 340.65,-44.73 340.65,-38.73 340.65,-38.73 340.65,-20.01 340.65,-20.01 340.65,-14.01 346.65,-8.01 352.65,-8.01 352.65,-8.01 456.45,-8.01 456.45,-8.01 462.45,-8.01 468.45,-14.01 468.45,-20.01 468.45,-20.01 468.45,-38.73 468.45,-38.73 468.45,-44.73 462.45,-50.73 456.45,-50.73"/>
<text xml:space="preserve" text-anchor="middle" x="404.55" y="-30.92" font-family="Helvetica,sans-Serif" font-size="11.00" fill="#222222">3. Generate prompts</text>
<text xml:space="preserve" text-anchor="middle" x="404.55" y="-18.92" font-family="Helvetica,sans-Serif" font-size="11.00" fill="#222222">(novel categories)</text>
</g>
<!-- c&#45;&gt;g -->
<g id="edge3" class="edge">
<title>c&#45;&gt;g</title>
<path fill="none" stroke="#8a8f94" stroke-width="1.3" d="M309.05,-29.37C315.91,-29.37 323.11,-29.37 330.34,-29.37"/>
<polygon fill="#8a8f94" stroke="#8a8f94" stroke-width="1.3" points="330.22,-32.17 338.22,-29.37 330.22,-26.57 330.22,-32.17"/>
</g>
<!-- e -->
<g id="node5" class="node">
<title>e</title>
<path fill="#eee3ec" stroke="#8b5e83" stroke-width="1.3" d="M560.75,-50.73C560.75,-50.73 512.45,-50.73 512.45,-50.73 506.45,-50.73 500.45,-44.73 500.45,-38.73 500.45,-38.73 500.45,-20.01 500.45,-20.01 500.45,-14.01 506.45,-8.01 512.45,-8.01 512.45,-8.01 560.75,-8.01 560.75,-8.01 566.75,-8.01 572.75,-14.01 572.75,-20.01 572.75,-20.01 572.75,-38.73 572.75,-38.73 572.75,-44.73 566.75,-50.73 560.75,-50.73"/>
<text xml:space="preserve" text-anchor="middle" x="536.6" y="-30.92" font-family="Helvetica,sans-Serif" font-size="11.00" fill="#222222">4. Export</text>
<text xml:space="preserve" text-anchor="middle" x="536.6" y="-18.92" font-family="Helvetica,sans-Serif" font-size="11.00" fill="#222222">dataset</text>
</g>
<!-- g&#45;&gt;e -->
<g id="edge4" class="edge">
<title>g&#45;&gt;e</title>
<path fill="none" stroke="#8a8f94" stroke-width="1.3" d="M469.05,-29.37C476.16,-29.37 483.28,-29.37 490.1,-29.37"/>
<polygon fill="#8a8f94" stroke="#8a8f94" stroke-width="1.3" points="489.85,-32.17 497.85,-29.37 489.85,-26.57 489.85,-32.17"/>
</g>
<!-- csv -->
<g id="node6" class="node">
<title>csv</title>
<path fill="#ffffff" stroke="#555555" stroke-width="1.3" d="M706.3,-53.4C706.3,-56.35 683.54,-58.74 655.53,-58.74 627.51,-58.74 604.75,-56.35 604.75,-53.4 604.75,-53.4 604.75,-5.34 604.75,-5.34 604.75,-2.39 627.51,0 655.53,0 683.54,0 706.3,-2.39 706.3,-5.34 706.3,-5.34 706.3,-53.4 706.3,-53.4"/>
<path fill="none" stroke="#555555" stroke-width="1.3" d="M706.3,-53.4C706.3,-50.45 683.54,-48.06 655.53,-48.06 627.51,-48.06 604.75,-50.45 604.75,-53.4"/>
<text xml:space="preserve" text-anchor="middle" x="655.53" y="-30.92" font-family="Helvetica,sans-Serif" font-size="11.00" fill="#222222">prompt + judge</text>
<text xml:space="preserve" text-anchor="middle" x="655.53" y="-18.92" font-family="Helvetica,sans-Serif" font-size="11.00" fill="#222222">CSVs</text>
</g>
<!-- e&#45;&gt;csv -->
<g id="edge5" class="edge">
<title>e&#45;&gt;csv</title>
<path fill="none" stroke="#8a8f94" stroke-width="1.3" d="M573.32,-29.37C580.06,-29.37 587.28,-29.37 594.53,-29.37"/>
<polygon fill="#8a8f94" stroke="#8a8f94" stroke-width="1.3" points="594.42,-32.17 602.42,-29.37 594.42,-26.57 594.42,-32.17"/>
</g>
</g>
</svg>
