<?xml version="1.0" encoding="UTF-8" standalone="no"?>
<!DOCTYPE svg PUBLIC "-//W3C//DTD SVG 1.1//EN"
 "http://www.w3.org/Graphics/SVG/1.1/DTD/svg11.dtd">
<!-- Generated by graphviz version 15.0.0 (20260523.1842)
 -->
<!-- Title: promptgen Pages: 1 -->
<svg width="343pt" height="390pt"
 viewBox="0.00 0.00 343.00 390.00" xmlns="http://www.w3.org/2000/svg" xmlns:xlink="http://www.w3.org/1999/xlink">
<g id="graph0" class="graph" transform="scale(1 1) rotate(0) translate(4 386.44)">
<title>promptgen</title>
<polygon fill="white" stroke="none" points="-4,4 -4,-386.44 338.75,-386.44 338.75,4 -4,4"/>
<text xml:space="preserve" text-anchor="middle" x="167.38" y="-5.2" font-family="Helvetica,sans-Serif" font-size="9.00" fill="#6b7177">Multi&#45;agent refinement loop per stage: &#160;critic = GPT 5.4, &#160;refiner = GPT 5.4&#45;mini.</text>
<!-- base -->
<g id="node1" class="node">
<title>base</title>
<path fill="#f5ecd9" stroke="#c08a3e" stroke-width="1.2" d="M248.24,-382.44C248.24,-382.44 86.51,-382.44 86.51,-382.44 80.51,-382.44 74.51,-376.44 74.51,-370.44 74.51,-370.44 74.51,-346.29 74.51,-346.29 74.51,-340.29 80.51,-334.29 86.51,-334.29 86.51,-334.29 248.24,-334.29 248.24,-334.29 254.24,-334.29 260.24,-340.29 260.24,-346.29 260.24,-346.29 260.24,-370.44 260.24,-370.44 260.24,-376.44 254.24,-382.44 248.24,-382.44"/>
<text xml:space="preserve" text-anchor="middle" x="167.38" y="-365.74" font-family="Helvetica,sans-Serif" font-size="10.00" fill="#222222">Base prompts</text>
<text xml:space="preserve" text-anchor="middle" x="167.38" y="-354.49" font-family="Helvetica,sans-Serif" font-size="10.00" fill="#222222">GPT 5.4&#45;mini + PersonaHub persona</text>
<text xml:space="preserve" text-anchor="middle" x="167.38" y="-343.24" font-family="Helvetica,sans-Serif" font-size="10.00" fill="#222222">(+ critic / refiner ×2–3)</text>
</g>
<!-- sel -->
<g id="node2" class="node">
<title>sel</title>
<polygon fill="#fbe9c7" stroke="#b07a1e" stroke-width="1.2" stroke-dasharray="5,2" points="228.74,-310.29 100.01,-310.29 100.01,-274.29 234.74,-274.29 234.74,-304.29 228.74,-310.29"/>
<polyline fill="none" stroke="#b07a1e" stroke-width="1.2" stroke-dasharray="5,2" points="228.74,-310.29 228.74,-304.29"/>
<polyline fill="none" stroke="#b07a1e" stroke-width="1.2" stroke-dasharray="5,2" points="234.74,-304.29 228.74,-304.29"/>
<text xml:space="preserve" text-anchor="middle" x="167.38" y="-288.41" font-family="Helvetica,sans-Serif" font-size="10.00" fill="#222222">Human: keep 5 strongest</text>
</g>
<!-- base&#45;&gt;sel -->
<g id="edge1" class="edge">
<title>base&#45;&gt;sel</title>
<path fill="none" stroke="#8a8f94" stroke-width="1.1" d="M167.38,-333.87C167.38,-329.17 167.38,-324.2 167.38,-319.42"/>
<polygon fill="#8a8f94" stroke="#8a8f94" stroke-width="1.1" points="170,-319.72 167.38,-312.22 164.75,-319.72 170,-319.72"/>
</g>
<!-- mut -->
<g id="node3" class="node">
<title>mut</title>
<path fill="#f5ecd9" stroke="#c08a3e" stroke-width="1.2" d="M237.74,-250.29C237.74,-250.29 97.01,-250.29 97.01,-250.29 91.01,-250.29 85.01,-244.29 85.01,-238.29 85.01,-238.29 85.01,-225.39 85.01,-225.39 85.01,-219.39 91.01,-213.39 97.01,-213.39 97.01,-213.39 237.74,-213.39 237.74,-213.39 243.74,-213.39 249.74,-219.39 249.74,-225.39 249.74,-225.39 249.74,-238.29 249.74,-238.29 249.74,-244.29 243.74,-250.29 237.74,-250.29"/>
<text xml:space="preserve" text-anchor="middle" x="167.38" y="-233.59" font-family="Helvetica,sans-Serif" font-size="10.00" fill="#222222">Mutation: authority endorsement</text>
<text xml:space="preserve" text-anchor="middle" x="167.38" y="-222.34" font-family="Helvetica,sans-Serif" font-size="10.00" fill="#222222">GPT 5.4&#45;mini &#160;(+ critic / refiner)</text>
</g>
<!-- sel&#45;&gt;mut -->
<g id="edge2" class="edge">
<title>sel&#45;&gt;mut</title>
<path fill="none" stroke="#8a8f94" stroke-width="1.1" d="M167.38,-273.75C167.38,-269.32 167.38,-264.47 167.38,-259.7"/>
<polygon fill="#8a8f94" stroke="#8a8f94" stroke-width="1.1" points="170,-259.93 167.38,-252.43 164.75,-259.93 170,-259.93"/>
</g>
<!-- trans -->
<g id="node4" class="node">
<title>trans</title>
<path fill="#f5ecd9" stroke="#c08a3e" stroke-width="1.2" d="M226.87,-189.39C226.87,-189.39 107.88,-189.39 107.88,-189.39 101.89,-189.39 95.89,-183.39 95.89,-177.39 95.89,-177.39 95.89,-164.49 95.89,-164.49 95.89,-158.49 101.89,-152.49 107.89,-152.49 107.89,-152.49 226.87,-152.49 226.87,-152.49 232.87,-152.49 238.87,-158.49 238.87,-164.49 238.87,-164.49 238.87,-177.39 238.87,-177.39 238.87,-183.39 232.87,-189.39 226.87,-189.39"/>
<text xml:space="preserve" text-anchor="middle" x="167.38" y="-172.69" font-family="Helvetica,sans-Serif" font-size="10.00" fill="#222222">Translation: Qwen 3.7&#45;plus</text>
<text xml:space="preserve" text-anchor="middle" x="167.38" y="-161.44" font-family="Helvetica,sans-Serif" font-size="10.00" fill="#222222">ES / JA / PT &#160;(+ critic loop)</text>
</g>
<!-- mut&#45;&gt;trans -->
<g id="edge3" class="edge">
<title>mut&#45;&gt;trans</title>
<path fill="none" stroke="#8a8f94" stroke-width="1.1" d="M167.38,-212.85C167.38,-208.39 167.38,-203.53 167.38,-198.75"/>
<polygon fill="#8a8f94" stroke="#8a8f94" stroke-width="1.1" points="170,-198.98 167.38,-191.48 164.75,-198.98 170,-198.98"/>
</g>
<!-- rev -->
<g id="node5" class="node">
<title>rev</title>
<polygon fill="#fbe9c7" stroke="#b07a1e" stroke-width="1.2" stroke-dasharray="5,2" points="258.37,-128.49 70.39,-128.49 70.39,-92.49 264.37,-92.49 264.37,-122.49 258.37,-128.49"/>
<polyline fill="none" stroke="#b07a1e" stroke-width="1.2" stroke-dasharray="5,2" points="258.37,-128.49 258.37,-122.49"/>
<polyline fill="none" stroke="#b07a1e" stroke-width="1.2" stroke-dasharray="5,2" points="264.37,-122.49 258.37,-122.49"/>
<text xml:space="preserve" text-anchor="middle" x="167.38" y="-106.61" font-family="Helvetica,sans-Serif" font-size="10.00" fill="#222222">Human review: attack + judge prompts</text>
</g>
<!-- trans&#45;&gt;rev -->
<g id="edge4" class="edge">
<title>trans&#45;&gt;rev</title>
<path fill="none" stroke="#8a8f94" stroke-width="1.1" d="M167.38,-152.08C167.38,-147.58 167.38,-142.66 167.38,-137.83"/>
<polygon fill="#8a8f94" stroke="#8a8f94" stroke-width="1.1" points="170,-138 167.38,-130.5 164.75,-138 170,-138"/>
</g>
<!-- leaf -->
<g id="node6" class="node">
<title>leaf</title>
<path fill="#ffffff" stroke="#555555" stroke-width="1.2" d="M243.74,-63.88C243.74,-66.42 209.51,-68.49 167.38,-68.49 125.24,-68.49 91.01,-66.42 91.01,-63.88 91.01,-63.88 91.01,-22.36 91.01,-22.36 91.01,-19.82 125.24,-17.75 167.38,-17.75 209.51,-17.75 243.74,-19.82 243.74,-22.36 243.74,-22.36 243.74,-63.88 243.74,-63.88"/>
<path fill="none" stroke="#555555" stroke-width="1.2" d="M243.74,-63.88C243.74,-61.33 209.51,-59.26 167.38,-59.26 125.24,-59.26 91.01,-61.33 91.01,-63.88"/>
<text xml:space="preserve" text-anchor="middle" x="167.38" y="-44.87" font-family="Helvetica,sans-Serif" font-size="10.00" fill="#222222">New leaf &#160;(+ judge prompt</text>
<text xml:space="preserve" text-anchor="middle" x="167.38" y="-33.62" font-family="Helvetica,sans-Serif" font-size="10.00" fill="#222222">conditioned on sibling leaves)</text>
</g>
<!-- rev&#45;&gt;leaf -->
<g id="edge5" class="edge">
<title>rev&#45;&gt;leaf</title>
<path fill="none" stroke="#8a8f94" stroke-width="1.1" d="M167.38,-91.97C167.38,-87.53 167.38,-82.6 167.38,-77.65"/>
<polygon fill="#8a8f94" stroke="#8a8f94" stroke-width="1.1" points="170,-77.98 167.38,-70.48 164.75,-77.98 170,-77.98"/>
</g>
</g>
</svg>
